<mxfile host="Electron" modified="2023-11-06T19:09:20.235Z" agent="Mozilla/5.0 (Windows NT 10.0; Win64; x64) AppleWebKit/537.36 (KHTML, like Gecko) draw.io/22.0.3 Chrome/114.0.5735.289 Electron/25.8.4 Safari/537.36" etag="SiOA701XlfISOaxF-Ghn" version="22.0.3" type="device">
  <diagram name="Page-1" id="2sWyfzGssQKtCrVY9Kq8">
    <mxGraphModel dx="1195" dy="697" grid="1" gridSize="10" guides="1" tooltips="1" connect="1" arrows="1" fold="1" page="1" pageScale="1" pageWidth="850" pageHeight="1100" math="0" shadow="0">
      <root>
        <mxCell id="0" />
        <mxCell id="1" parent="0" />
        <mxCell id="SsPtfE6BJz47A4wzRlv0-21" value="" style="rounded=0;whiteSpace=wrap;html=1;fillColor=none;strokeWidth=5;" vertex="1" parent="1">
          <mxGeometry x="120" y="110" width="450" height="540" as="geometry" />
        </mxCell>
        <mxCell id="SsPtfE6BJz47A4wzRlv0-12" style="edgeStyle=orthogonalEdgeStyle;rounded=0;orthogonalLoop=1;jettySize=auto;html=1;exitX=0.5;exitY=1;exitDx=0;exitDy=0;entryX=0.5;entryY=0;entryDx=0;entryDy=0;" edge="1" parent="1" source="SsPtfE6BJz47A4wzRlv0-1" target="SsPtfE6BJz47A4wzRlv0-4">
          <mxGeometry relative="1" as="geometry" />
        </mxCell>
        <mxCell id="SsPtfE6BJz47A4wzRlv0-1" value="Input data di PC/Laptop" style="rounded=0;whiteSpace=wrap;html=1;" vertex="1" parent="1">
          <mxGeometry x="170" y="260" width="120" height="60" as="geometry" />
        </mxCell>
        <mxCell id="SsPtfE6BJz47A4wzRlv0-11" style="edgeStyle=orthogonalEdgeStyle;rounded=0;orthogonalLoop=1;jettySize=auto;html=1;exitX=0.5;exitY=1;exitDx=0;exitDy=0;entryX=0.5;entryY=0;entryDx=0;entryDy=0;" edge="1" parent="1" source="SsPtfE6BJz47A4wzRlv0-3" target="SsPtfE6BJz47A4wzRlv0-1">
          <mxGeometry relative="1" as="geometry" />
        </mxCell>
        <mxCell id="SsPtfE6BJz47A4wzRlv0-3" value="Mulai" style="ellipse;whiteSpace=wrap;html=1;" vertex="1" parent="1">
          <mxGeometry x="170" y="160" width="120" height="80" as="geometry" />
        </mxCell>
        <mxCell id="SsPtfE6BJz47A4wzRlv0-13" style="edgeStyle=orthogonalEdgeStyle;rounded=0;orthogonalLoop=1;jettySize=auto;html=1;exitX=0.5;exitY=1;exitDx=0;exitDy=0;entryX=0.5;entryY=0;entryDx=0;entryDy=0;" edge="1" parent="1" source="SsPtfE6BJz47A4wzRlv0-4" target="SsPtfE6BJz47A4wzRlv0-5">
          <mxGeometry relative="1" as="geometry" />
        </mxCell>
        <mxCell id="SsPtfE6BJz47A4wzRlv0-4" value="Klik Submit" style="rounded=0;whiteSpace=wrap;html=1;" vertex="1" parent="1">
          <mxGeometry x="170" y="340" width="120" height="60" as="geometry" />
        </mxCell>
        <mxCell id="SsPtfE6BJz47A4wzRlv0-14" style="edgeStyle=orthogonalEdgeStyle;rounded=0;orthogonalLoop=1;jettySize=auto;html=1;exitX=0.5;exitY=1;exitDx=0;exitDy=0;entryX=0.5;entryY=0;entryDx=0;entryDy=0;" edge="1" parent="1" source="SsPtfE6BJz47A4wzRlv0-5" target="SsPtfE6BJz47A4wzRlv0-6">
          <mxGeometry relative="1" as="geometry" />
        </mxCell>
        <mxCell id="SsPtfE6BJz47A4wzRlv0-5" value="Data dikirim ke FPGA secara Serial" style="rounded=0;whiteSpace=wrap;html=1;" vertex="1" parent="1">
          <mxGeometry x="170" y="420" width="120" height="60" as="geometry" />
        </mxCell>
        <mxCell id="SsPtfE6BJz47A4wzRlv0-15" style="edgeStyle=orthogonalEdgeStyle;rounded=0;orthogonalLoop=1;jettySize=auto;html=1;exitX=0.5;exitY=1;exitDx=0;exitDy=0;entryX=0.5;entryY=0;entryDx=0;entryDy=0;" edge="1" parent="1" source="SsPtfE6BJz47A4wzRlv0-6" target="SsPtfE6BJz47A4wzRlv0-7">
          <mxGeometry relative="1" as="geometry" />
        </mxCell>
        <mxCell id="SsPtfE6BJz47A4wzRlv0-6" value="Data diterima di FPGA" style="rounded=0;whiteSpace=wrap;html=1;" vertex="1" parent="1">
          <mxGeometry x="170" y="500" width="120" height="60" as="geometry" />
        </mxCell>
        <mxCell id="SsPtfE6BJz47A4wzRlv0-17" style="edgeStyle=orthogonalEdgeStyle;rounded=0;orthogonalLoop=1;jettySize=auto;html=1;exitX=0.5;exitY=1;exitDx=0;exitDy=0;entryX=0.5;entryY=0;entryDx=0;entryDy=0;" edge="1" parent="1" source="SsPtfE6BJz47A4wzRlv0-7" target="SsPtfE6BJz47A4wzRlv0-8">
          <mxGeometry relative="1" as="geometry" />
        </mxCell>
        <mxCell id="SsPtfE6BJz47A4wzRlv0-7" value="Proses dengan algoritma XTEA di FPGA" style="rounded=0;whiteSpace=wrap;html=1;" vertex="1" parent="1">
          <mxGeometry x="390" y="260" width="120" height="60" as="geometry" />
        </mxCell>
        <mxCell id="SsPtfE6BJz47A4wzRlv0-18" style="edgeStyle=orthogonalEdgeStyle;rounded=0;orthogonalLoop=1;jettySize=auto;html=1;exitX=0.5;exitY=1;exitDx=0;exitDy=0;" edge="1" parent="1" source="SsPtfE6BJz47A4wzRlv0-8" target="SsPtfE6BJz47A4wzRlv0-9">
          <mxGeometry relative="1" as="geometry" />
        </mxCell>
        <mxCell id="SsPtfE6BJz47A4wzRlv0-8" value="Data di kirim ke PC/Laptop secara Serial" style="rounded=0;whiteSpace=wrap;html=1;" vertex="1" parent="1">
          <mxGeometry x="390" y="340" width="120" height="60" as="geometry" />
        </mxCell>
        <mxCell id="SsPtfE6BJz47A4wzRlv0-9" value="Data dibaca dan disimpan di PC/Laptop" style="rounded=0;whiteSpace=wrap;html=1;" vertex="1" parent="1">
          <mxGeometry x="390" y="420" width="120" height="60" as="geometry" />
        </mxCell>
        <mxCell id="SsPtfE6BJz47A4wzRlv0-10" value="Selesai" style="ellipse;whiteSpace=wrap;html=1;" vertex="1" parent="1">
          <mxGeometry x="390" y="500" width="120" height="80" as="geometry" />
        </mxCell>
        <mxCell id="SsPtfE6BJz47A4wzRlv0-19" style="edgeStyle=orthogonalEdgeStyle;rounded=0;orthogonalLoop=1;jettySize=auto;html=1;exitX=0.5;exitY=1;exitDx=0;exitDy=0;entryX=0.493;entryY=-0.049;entryDx=0;entryDy=0;entryPerimeter=0;" edge="1" parent="1" source="SsPtfE6BJz47A4wzRlv0-9" target="SsPtfE6BJz47A4wzRlv0-10">
          <mxGeometry relative="1" as="geometry" />
        </mxCell>
        <mxCell id="SsPtfE6BJz47A4wzRlv0-22" value="&lt;font style=&quot;font-size: 30px;&quot;&gt;&lt;b&gt;Alur XTEA&lt;/b&gt;&lt;/font&gt;" style="text;html=1;strokeColor=none;fillColor=none;align=left;verticalAlign=middle;whiteSpace=wrap;rounded=0;" vertex="1" parent="1">
          <mxGeometry x="120" y="70" width="280" height="30" as="geometry" />
        </mxCell>
      </root>
    </mxGraphModel>
  </diagram>
</mxfile>
